<mxfile host="app.diagrams.net" agent="Mozilla/5.0 (Windows NT 10.0; Win64; x64) AppleWebKit/537.36 (KHTML, like Gecko) Chrome/128.0.0.0 Safari/537.36" version="24.7.8">
  <diagram name="Page-1" id="286-Fr1HfKGzPlJhb9lN">
    <mxGraphModel dx="1674" dy="772" grid="1" gridSize="10" guides="1" tooltips="1" connect="1" arrows="1" fold="1" page="1" pageScale="1" pageWidth="850" pageHeight="1100" math="0" shadow="0">
      <root>
        <mxCell id="0" />
        <mxCell id="1" parent="0" />
        <mxCell id="9YrNIW8wtf2WuMJT0hMV-1" value="START" style="rounded=1;whiteSpace=wrap;html=1;" vertex="1" parent="1">
          <mxGeometry x="340" y="70" width="120" height="60" as="geometry" />
        </mxCell>
        <mxCell id="9YrNIW8wtf2WuMJT0hMV-2" value="STOP" style="rounded=1;whiteSpace=wrap;html=1;" vertex="1" parent="1">
          <mxGeometry x="285" y="730" width="120" height="60" as="geometry" />
        </mxCell>
        <mxCell id="9YrNIW8wtf2WuMJT0hMV-4" value="a, b, c" style="shape=card;whiteSpace=wrap;html=1;" vertex="1" parent="1">
          <mxGeometry x="330" y="150" width="130" height="90" as="geometry" />
        </mxCell>
        <mxCell id="9YrNIW8wtf2WuMJT0hMV-9" value="" style="edgeStyle=orthogonalEdgeStyle;rounded=0;orthogonalLoop=1;jettySize=auto;html=1;" edge="1" parent="1" source="9YrNIW8wtf2WuMJT0hMV-6" target="9YrNIW8wtf2WuMJT0hMV-7">
          <mxGeometry relative="1" as="geometry" />
        </mxCell>
        <mxCell id="9YrNIW8wtf2WuMJT0hMV-13" value="YES" style="edgeLabel;html=1;align=center;verticalAlign=middle;resizable=0;points=[];" vertex="1" connectable="0" parent="9YrNIW8wtf2WuMJT0hMV-9">
          <mxGeometry y="-2" relative="1" as="geometry">
            <mxPoint as="offset" />
          </mxGeometry>
        </mxCell>
        <mxCell id="9YrNIW8wtf2WuMJT0hMV-10" value="" style="edgeStyle=orthogonalEdgeStyle;rounded=0;orthogonalLoop=1;jettySize=auto;html=1;" edge="1" parent="1" source="9YrNIW8wtf2WuMJT0hMV-6">
          <mxGeometry relative="1" as="geometry">
            <mxPoint x="240" y="430" as="targetPoint" />
            <Array as="points">
              <mxPoint x="241" y="310" />
            </Array>
          </mxGeometry>
        </mxCell>
        <mxCell id="9YrNIW8wtf2WuMJT0hMV-14" value="NO" style="edgeLabel;html=1;align=center;verticalAlign=middle;resizable=0;points=[];" vertex="1" connectable="0" parent="9YrNIW8wtf2WuMJT0hMV-10">
          <mxGeometry x="-0.0462" y="1" relative="1" as="geometry">
            <mxPoint as="offset" />
          </mxGeometry>
        </mxCell>
        <mxCell id="9YrNIW8wtf2WuMJT0hMV-6" value="&lt;div&gt;a &amp;gt; b&amp;nbsp;&lt;/div&gt;&lt;div&gt;and&lt;br&gt;a &amp;gt; c&lt;/div&gt;" style="rhombus;whiteSpace=wrap;html=1;" vertex="1" parent="1">
          <mxGeometry x="340" y="260" width="110" height="100" as="geometry" />
        </mxCell>
        <mxCell id="9YrNIW8wtf2WuMJT0hMV-11" style="edgeStyle=orthogonalEdgeStyle;rounded=0;orthogonalLoop=1;jettySize=auto;html=1;" edge="1" parent="1" source="9YrNIW8wtf2WuMJT0hMV-7" target="9YrNIW8wtf2WuMJT0hMV-2">
          <mxGeometry relative="1" as="geometry">
            <Array as="points">
              <mxPoint x="570" y="710" />
            </Array>
          </mxGeometry>
        </mxCell>
        <mxCell id="9YrNIW8wtf2WuMJT0hMV-7" value="a" style="shape=document;whiteSpace=wrap;html=1;boundedLbl=1;" vertex="1" parent="1">
          <mxGeometry x="510" y="430" width="120" height="80" as="geometry" />
        </mxCell>
        <mxCell id="9YrNIW8wtf2WuMJT0hMV-18" style="edgeStyle=orthogonalEdgeStyle;rounded=0;orthogonalLoop=1;jettySize=auto;html=1;entryX=0.5;entryY=0;entryDx=0;entryDy=0;" edge="1" parent="1" source="9YrNIW8wtf2WuMJT0hMV-15" target="9YrNIW8wtf2WuMJT0hMV-16">
          <mxGeometry relative="1" as="geometry" />
        </mxCell>
        <mxCell id="9YrNIW8wtf2WuMJT0hMV-20" value="YES" style="edgeLabel;html=1;align=center;verticalAlign=middle;resizable=0;points=[];" vertex="1" connectable="0" parent="9YrNIW8wtf2WuMJT0hMV-18">
          <mxGeometry x="-0.4435" y="-2" relative="1" as="geometry">
            <mxPoint as="offset" />
          </mxGeometry>
        </mxCell>
        <mxCell id="9YrNIW8wtf2WuMJT0hMV-19" style="edgeStyle=orthogonalEdgeStyle;rounded=0;orthogonalLoop=1;jettySize=auto;html=1;" edge="1" parent="1" source="9YrNIW8wtf2WuMJT0hMV-15">
          <mxGeometry relative="1" as="geometry">
            <mxPoint x="120" y="540" as="targetPoint" />
          </mxGeometry>
        </mxCell>
        <mxCell id="9YrNIW8wtf2WuMJT0hMV-21" value="NO" style="edgeLabel;html=1;align=center;verticalAlign=middle;resizable=0;points=[];" vertex="1" connectable="0" parent="9YrNIW8wtf2WuMJT0hMV-19">
          <mxGeometry x="-0.4812" y="1" relative="1" as="geometry">
            <mxPoint as="offset" />
          </mxGeometry>
        </mxCell>
        <mxCell id="9YrNIW8wtf2WuMJT0hMV-15" value="b &amp;gt; c" style="rhombus;whiteSpace=wrap;html=1;" vertex="1" parent="1">
          <mxGeometry x="180" y="430" width="110" height="100" as="geometry" />
        </mxCell>
        <mxCell id="9YrNIW8wtf2WuMJT0hMV-23" style="edgeStyle=orthogonalEdgeStyle;rounded=0;orthogonalLoop=1;jettySize=auto;html=1;" edge="1" parent="1" source="9YrNIW8wtf2WuMJT0hMV-16">
          <mxGeometry relative="1" as="geometry">
            <mxPoint x="345" y="730" as="targetPoint" />
          </mxGeometry>
        </mxCell>
        <mxCell id="9YrNIW8wtf2WuMJT0hMV-16" value="b" style="shape=document;whiteSpace=wrap;html=1;boundedLbl=1;" vertex="1" parent="1">
          <mxGeometry x="300" y="540" width="90" height="70" as="geometry" />
        </mxCell>
        <mxCell id="9YrNIW8wtf2WuMJT0hMV-22" style="edgeStyle=orthogonalEdgeStyle;rounded=0;orthogonalLoop=1;jettySize=auto;html=1;entryX=0.5;entryY=0;entryDx=0;entryDy=0;" edge="1" parent="1" source="9YrNIW8wtf2WuMJT0hMV-17" target="9YrNIW8wtf2WuMJT0hMV-2">
          <mxGeometry relative="1" as="geometry">
            <Array as="points">
              <mxPoint x="130" y="710" />
              <mxPoint x="345" y="710" />
            </Array>
          </mxGeometry>
        </mxCell>
        <mxCell id="9YrNIW8wtf2WuMJT0hMV-17" value="c" style="shape=document;whiteSpace=wrap;html=1;boundedLbl=1;" vertex="1" parent="1">
          <mxGeometry x="80" y="545" width="100" height="60" as="geometry" />
        </mxCell>
      </root>
    </mxGraphModel>
  </diagram>
</mxfile>
